<svg width="311" height="343" viewBox="0 0 311 343" fill="none" xmlns="http://www.w3.org/2000/svg">
<path d="M183.135 296.968C174.784 307.762 177.436 324.456 181.333 335.828C182.51 339.265 180.003 343.094 176.373 342.998L10.2779 338.609C6.43008 338.507 4.0499 334.037 5.64395 330.532C18.5924 302.06 24.9251 240.667 26.1743 225.045C27.5557 207.769 15.1229 97.8971 57.2565 52.2899C99.3901 6.68257 162.245 11.5197 207.832 23.9581C253.42 36.3964 295.553 67.4923 296.935 122.083C298.316 176.673 279.667 187.73 274.141 195.331C269.886 201.184 248.226 207.933 236.754 210.896C235.905 211.115 235.105 211.533 234.614 212.259C230.81 217.875 232.227 231.012 235.461 237.483C238.915 244.393 252.729 252.685 249.275 266.506C245.822 280.326 240.296 280.326 227.172 288.618C216.016 295.667 192.882 295.226 186.195 295.36C184.986 295.384 183.876 296.011 183.135 296.968Z" fill="#699682"/>
<path fill-rule="evenodd" clip-rule="evenodd" d="M166.338 228.649C162.439 226.776 158.526 225.485 155.411 225.485C150.577 225.485 144.597 226.724 139.339 229.402C134.083 232.079 129.154 236.412 127.237 242.804C126.689 244.632 127.726 246.558 129.553 247.106C131.38 247.655 133.305 246.617 133.853 244.79C135.045 240.816 138.231 237.721 142.473 235.561C146.712 233.402 151.611 232.395 155.411 232.395C156.946 232.395 159.718 233.134 163.349 234.878C166.867 236.568 170.841 239.031 174.673 242.06C182.462 248.216 189.054 256.213 190.71 264.193C191.097 266.061 192.925 267.262 194.793 266.874C196.66 266.486 197.86 264.657 197.473 262.789C195.329 252.456 187.23 243.178 178.954 236.637C174.754 233.317 170.35 230.576 166.338 228.649Z" fill="black"/>
<path fill-rule="evenodd" clip-rule="evenodd" d="M206.386 230.095C196.201 227.352 185.856 230.46 179.422 237.701C178.155 239.127 178.283 241.311 179.709 242.579C181.135 243.846 183.318 243.718 184.585 242.292C189.203 237.094 196.816 234.674 204.59 236.768C206.3 237.228 209.214 238.643 212.843 241.014C216.395 243.336 220.397 246.419 224.251 249.99C232.09 257.255 238.766 266.027 240.441 274.102C240.829 275.97 242.657 277.17 244.524 276.783C246.392 276.395 247.592 274.566 247.204 272.698C245.08 262.46 237.078 252.458 228.945 244.921C224.812 241.091 220.504 237.767 216.62 235.229C212.813 232.741 209.165 230.844 206.386 230.095Z" fill="black"/>
<path fill-rule="evenodd" clip-rule="evenodd" d="M262.521 41.5111C275.571 49.9296 285.247 58.3716 290.053 65.1036C309.775 92.7259 306.066 132.769 295.127 164.231C290.133 178.597 277.601 186.555 261.978 191.345C248.957 195.337 234.433 196.941 221.441 198.375C218.793 198.668 216.209 198.953 213.713 199.25C202.551 200.58 184.151 199.422 165.391 197.347C146.74 195.284 128.1 192.359 116.652 190.298C114.775 189.959 112.979 191.208 112.641 193.086C112.303 194.964 113.551 196.76 115.428 197.098C127.004 199.183 145.801 202.132 164.632 204.215C183.356 206.286 202.485 207.547 214.53 206.112C216.906 205.829 219.405 205.554 221.998 205.269C234.982 203.839 250.295 202.154 264.002 197.952C280.497 192.894 295.594 183.922 301.651 166.501C312.815 134.39 317.395 91.5104 295.674 61.0871C290.119 53.3077 279.592 44.3014 266.264 35.7036C252.862 27.0571 236.356 18.6496 218.585 12.1688C183.238 -0.72218 141.996 -6.29766 110.296 10.2799C79.2681 26.5062 60.9177 47.4418 50.5638 70.0339C40.2424 92.5553 37.9819 116.471 38.6818 138.526C39.3703 160.225 39.5413 192.934 37.6507 223.283C36.7051 238.462 35.2478 252.984 33.0986 265.214C30.9287 277.562 28.1195 287.157 24.6817 292.785C12.5881 312.584 3.72751 323.287 1.01154 326.004C-0.337158 327.353 -0.337158 329.541 1.01154 330.89C2.36026 332.239 4.54694 332.239 5.89563 330.89C9.16589 327.618 18.356 316.393 30.5755 296.389C34.7357 289.578 37.7111 278.875 39.9014 266.411C42.1124 253.829 43.5905 239.026 44.5445 223.713C46.4528 193.08 46.2784 160.143 45.5855 138.307C44.9039 116.828 47.1331 94.0996 56.8425 72.914C66.5193 51.7991 83.7407 31.9646 113.496 16.4039C142.579 1.19464 181.46 5.98445 216.22 18.6611C233.503 24.9642 249.547 33.1412 262.521 41.5111Z" fill="black"/>
<path fill-rule="evenodd" clip-rule="evenodd" d="M116.087 192.405C114.23 191.974 112.374 193.131 111.942 194.99C107.131 215.725 115.337 235.069 126.148 250.052C136.972 265.053 150.789 276.236 158.385 280.94C162.491 283.483 167.977 285.315 173.971 286.625C180.013 287.946 186.798 288.785 193.654 289.224C207.332 290.102 221.614 289.411 231.285 287.619C241.709 285.688 249.024 279.487 253.584 272.454C258.088 265.507 260.059 257.52 259.658 251.514C259.435 248.167 258.025 244.828 256.343 241.781C254.641 238.697 252.46 235.569 250.4 232.648C250.241 232.423 250.082 232.198 249.924 231.975C247.996 229.244 246.207 226.712 244.815 224.34C243.272 221.712 242.497 219.733 242.388 218.31C242.159 215.33 242.779 212.066 243.748 209.089C244.712 206.126 245.945 203.68 246.721 202.419C247.72 200.794 247.214 198.666 245.59 197.666C243.965 196.666 241.838 197.172 240.838 198.797C239.772 200.53 238.311 203.475 237.18 206.95C236.054 210.411 235.178 214.633 235.501 218.84C235.737 221.908 237.207 225.025 238.859 227.839C240.407 230.476 242.364 233.246 244.248 235.912C244.418 236.154 244.588 236.394 244.757 236.633C246.841 239.587 248.805 242.419 250.297 245.122C251.809 247.862 252.644 250.137 252.767 251.973C253.057 256.332 251.574 262.857 247.789 268.694C244.061 274.444 238.253 279.3 230.027 280.824C221.048 282.488 207.357 283.179 194.096 282.328C187.484 281.904 181.059 281.102 175.445 279.874C169.783 278.637 165.167 277.013 162.021 275.065C155.112 270.786 141.991 260.202 131.748 246.007C121.493 231.794 114.503 214.514 118.671 196.552C119.102 194.694 117.945 192.837 116.087 192.405Z" fill="black"/>
<path fill-rule="evenodd" clip-rule="evenodd" d="M190.623 283.52C189.091 282.383 186.928 282.703 185.792 284.236C179.8 292.315 172.105 313.969 185.52 339.06C186.42 340.742 188.512 341.377 190.194 340.477C191.876 339.577 192.51 337.483 191.611 335.8C179.607 313.349 186.74 294.555 191.339 288.353C192.475 286.821 192.155 284.657 190.623 283.52Z" fill="black"/>
<path fill-rule="evenodd" clip-rule="evenodd" d="M118.331 119.411C120.117 120.062 121.993 121.458 123.863 123.485C125.157 124.887 127.342 124.974 128.743 123.68C130.145 122.386 130.232 120.2 128.939 118.798C126.664 116.333 123.904 114.088 120.696 112.918C117.362 111.703 113.695 111.714 110.006 113.559C107.337 114.894 103.996 117.29 101.285 120.126C98.7002 122.831 96.0094 126.642 96.0094 130.816C96.0094 132.724 97.5556 134.271 99.463 134.271C101.37 134.271 102.917 132.724 102.917 130.816C102.917 129.438 103.969 127.317 106.277 124.902C108.459 122.619 111.162 120.707 113.095 119.74C114.984 118.795 116.67 118.805 118.331 119.411Z" fill="black"/>
<path d="M239.647 174.145C240.719 177.004 243.325 178.669 245.468 177.865C247.611 177.061 248.48 174.092 247.408 171.233C246.336 168.375 243.73 166.709 241.587 167.513C239.444 168.317 238.576 171.286 239.647 174.145Z" fill="black"/>
<path d="M262.759 165.501C263.876 168.343 266.508 169.967 268.638 169.129C270.768 168.291 271.59 165.308 270.473 162.467C269.356 159.626 266.724 158.001 264.594 158.839C262.464 159.677 261.643 162.66 262.759 165.501Z" fill="black"/>
<path fill-rule="evenodd" clip-rule="evenodd" d="M49.9425 37.8032L85.9403 34.7512L85.357 27.8657L49.3592 30.9177C44.8406 31.3008 41.4685 35.2458 41.7916 39.7711L44.6433 79.7126C44.6876 80.3321 44.3134 80.9049 43.7287 81.1131L12.9473 92.074C7.52635 94.0044 5.67257 100.738 9.34122 105.173L34.8669 136.03C35.3689 136.637 35.2631 137.54 34.6346 138.015L4.55495 160.716C0.0892792 164.087 0.174423 170.824 4.72384 174.08L35.6183 196.193C36.4444 196.784 36.3716 198.035 35.4825 198.527L10.9131 212.104C6.43611 214.579 5.24528 220.479 8.41203 224.497L33.2052 255.956C34.3861 257.454 36.5577 257.711 38.0555 256.53C39.5533 255.348 39.8101 253.176 38.6292 251.678L13.836 220.219C13.3082 219.549 13.5067 218.566 14.2528 218.153L38.8222 204.576C44.157 201.627 44.594 194.121 39.6373 190.573L8.74286 168.46C7.98462 167.917 7.97043 166.794 8.71471 166.233L38.7943 143.531C42.5657 140.685 43.2001 135.265 40.1881 131.624L14.6625 100.767C14.051 100.028 14.36 98.9059 15.2635 98.5841L46.0448 87.6232C49.5534 86.3739 51.7983 82.9367 51.5329 79.2203L48.6812 39.2788C48.6274 38.5246 49.1894 37.8671 49.9425 37.8032Z" fill="black"/>
</svg>
